<?xml version="1.0" encoding="UTF-8"?>
<svg version="1.1" viewBox="0 0 1600 1600" width="1280" height="1280" xmlns="http://www.w3.org/2000/svg">
<path transform="translate(681,178)" d="m0 0c15.2-0.117 30.4-0.205 45.6-0.259 7.05-0.0258 14.1-0.0609 21.2-0.118 6.8-0.0551 13.6-0.0842 20.4-0.0972 2.6-0.00926 5.2-0.0273 7.79-0.0543 3.63-0.0362 7.26-0.0413 10.9-0.039 1.08-0.018 2.16-0.036 3.27-0.0545 7.3 0.0507 7.3 0.0507 10.5 3 0.699 1.3 0.699 1.3 1.41 2.62 0.886 1.26 0.886 1.26 1.79 2.55 4.31 6.48 8.47 13 12.6 19.7 2.84 4.57 5.85 8.98 8.99 13.4 2.55 3.76 4.76 7.71 6.98 11.7 1.7 2.8 3.61 5.23 5.68 7.76 0.942 1.42 1.86 2.86 2.75 4.31l1.3 2.11c0.315 0.519 0.629 1.04 0.953 1.57 5.96-0.477 10.2-1.97 14.3-6.45 2.14-2 4.44-3.15 7.04-4.49 3.93-2.03 7.2-4.27 10.6-7.06 1.84-1.21 3.69-2.4 5.56-3.56 3.81-2.37 3.81-2.37 7.46-4.98 2.25-1.65 4.56-2.87 7.04-4.14 6.06-3.25 11.4-7.2 16.9-11.3 1.98-1.36 3.98-2.7 6-4 0.879-0.615 1.76-1.23 2.66-1.86 0.977-0.664 1.95-1.33 2.96-2.01 0.92-0.637 1.84-1.27 2.79-1.93 0.853-0.394 1.71-0.789 2.59-1.2 2.16 0.925 2.16 0.925 4 2 0.103 15 0.149 30 0.127 45-0.00886 6.97 8.48e-4 13.9 0.0547 20.9 0.0519 6.72 0.0515 13.4 0.0193 20.2-0.00375 2.56 0.00999 5.13 0.0415 7.69 0.0412 3.6 0.0202 7.18-0.0154 10.8 0.0266 1.06 0.0532 2.12 0.0806 3.21-0.1 4.45-0.217 7.14-3.45 10.4-2.55 1.8-5.14 3.33-7.86 4.86-1.62 1.13-3.22 2.27-4.81 3.44-5.9 4.13-12 7.84-18.2 11.6-7.75 4.7-15.4 9.52-22.9 14.6-9.51 6.41-9.51 6.41-12.1 6.41 0.484 5.08 2.04 7.89 5 12 1.7 2.65 3.35 5.33 5 8 0.598 0.949 1.2 1.9 1.81 2.88 1.19 2.12 1.19 2.12 1.19 4.12h2c1.76 2.63 3.38 5.29 5 8 0.695 1.11 1.39 2.21 2.11 3.36 0.546 0.871 0.546 0.871 1.1 1.76 1.07 1.71 2.14 3.42 3.22 5.13 1.57 2.76 1.57 2.76 1.57 4.76h2c0.28 0.534 0.559 1.07 0.848 1.62 2.84 5.28 6 10.2 9.5 15 1.67 2.39 3.16 4.84 4.65 7.36 0.518 0.825 1.04 1.65 1.57 2.5 0.77 1.24 0.77 1.24 1.55 2.5 0.518 0.825 1.04 1.65 1.57 2.5 1.33 2.55 1.8 4.69 2.3 7.5-1.28 0.0103-2.55 0.0206-3.87 0.0312-12 0.0976-24 0.2-36 0.308-6.17 0.0553-12.3 0.109-18.5 0.158-5.95 0.0476-11.9 0.0999-17.8 0.156-2.27 0.0205-4.55 0.0392-6.82 0.0561-3.17 0.024-6.35 0.054-9.52 0.0856-0.95 0.00576-1.9 0.0115-2.88 0.0174-4.13-0.373-4.13-0.373-7.6 1.19-0.246 2.87-0.424 5.71-0.555 8.58-0.042 0.889-0.0841 1.78-0.127 2.69-0.423 9.8-0.469 19.6-0.448 29.4 0.00548 3.07-5.03e-5 6.14-0.00635 9.21 6.59e-4 1.96 0.00194 3.91 0.00391 5.87-0.00304 1.37-0.00304 1.37-0.00613 2.78-0.397 4.05-0.397 4.05 1.14 7.46 2.56 0.208 5.1 0.356 7.67 0.465 1.62 0.0774 3.24 0.155 4.86 0.232 1.28 0.0586 1.28 0.0586 2.58 0.118 23.8 1.1 23.8 1.1 35.2 2.18 0.778 0.0708 1.56 0.142 2.36 0.215 4.4 0.447 8.61 1.25 12.9 2.25 5.58 1.23 11.3 2.04 16.9 2.94 6.1 1.02 11.7 2.49 17.5 4.59 1.56 0.518 3.13 1.03 4.69 1.54 11 3.67 21.1 7.99 31.3 13.5 1.27 0.661 1.27 0.661 2.57 1.34 10.5 5.6 19.8 12.6 28.7 20.3 2.68 2.38 2.68 2.38 5.71 4.32v2c0.639 0.268 1.28 0.536 1.94 0.812 2.06 1.19 2.06 1.19 3.06 4.19 1.33 0.676 2.66 1.34 4 2 1.57 1.71 1.57 1.71 3.12 3.81 0.597 0.797 1.19 1.59 1.81 2.41 0.682 0.915 1.36 1.83 2.07 2.77 0.843 1.09 1.69 2.18 2.54 3.27 0.658 0.847 0.658 0.847 1.33 1.71 0.86 1.11 1.72 2.21 2.58 3.32 4.12 5.34 7.68 10.2 9.55 16.7h2c4.88 8.6 9.4 17.2 13 26.4 1.08 2.68 2.29 5.26 3.53 7.87 2.32 5.03 3.98 10.1 5.51 15.4 0.732 2.39 1.52 4.66 2.42 6.98 1.83 4.8 3.24 9.69 4.64 14.6 0.256 0.882 0.512 1.76 0.775 2.67 1.49 5.21 2.68 10.4 3.69 15.7 0.596 2.82 1.55 5.49 2.47 8.22 0.588 2.74 1.05 5.49 1.5 8.25 0.257 1.51 0.515 3.03 0.773 4.54 0.123 0.725 0.247 1.45 0.374 2.2 0.445 2.53 0.953 5.05 1.48 7.57 0.621 3 1.09 5.96 1.44 9 0.0589 3.26 0.0589 3.26 1.44 4.44 0.287 1.91 0.515 3.83 0.719 5.75 0.128 1.17 0.255 2.33 0.387 3.53 0.263 2.48 0.526 4.96 0.789 7.44 0.128 1.17 0.255 2.33 0.387 3.53 0.114 1.08 0.228 2.16 0.346 3.27 0.112 2.42 0.112 2.42 1.37 3.48 0.23 1.63 0.398 3.26 0.541 4.9 0.14 1.58 0.14 1.58 0.284 3.19 0.0979 1.16 0.196 2.31 0.297 3.5 0.156 1.79 0.156 1.79 0.316 3.62 0.339 3.91 0.671 7.82 1 11.7 0.114 1.35 0.228 2.69 0.342 4.04 7.51 88.8 7.67 179-16.7 394-0.339 1.09-0.678 2.19-1.03 3.31-1.92 6.06-4.08 11.7-7.1 17.2-0.469 0.985-0.938 1.97-1.42 2.98-5.58 11.6-12.2 21.2-21.6 30-0.887 0.908-1.77 1.82-2.69 2.75-8.49 8.26-18.2 15-29.3 19.2-0.825 0.33-1.65 0.66-2.5 1-2.5 1-5 2-7.5 3-0.717 0.32-1.43 0.639-2.17 0.969-4.27 1.56-8.65 2.52-13.1 3.53-0.968 0.221-1.94 0.443-2.93 0.671-7.53 1.67-15 2.75-22.7 3.47-3.04 0.166-3.04 0.166-5.14 1.36-1.32 0.207-2.64 0.367-3.97 0.5-1.23 0.124-1.23 0.124-2.48 0.25-1.29 0.124-1.29 0.124-2.61 0.25-1.2 0.124-1.2 0.124-2.43 0.25-15.5 1.53-31.1 1.99-46.7 2.3-1 0.0209-2 0.0419-3.04 0.0634-23.1 0.474-46.2 0.536-69.4 0.512-5.69-0.00572-11.4-0.00229-17.1 0.00344-21.6 0.0185-43.3-0.0481-64.9-0.595-1.23-0.0307-1.23-0.0307-2.49-0.0621-11-0.281-21.9-0.705-32.8-2.09-2.44-0.305-4.87-0.595-7.31-0.875-46.5-5.35-46.5-5.35-67.8-15.5-0.807-0.353-1.61-0.706-2.45-1.07-15.9-7.32-29.5-19.8-40.8-32.9-0.466-0.54-0.932-1.08-1.41-1.64-2.23-2.68-3.9-4.85-4.34-8.36h-2c-7.23-13.3-14-26.4-18-41-0.498-1.6-0.998-3.21-1.5-4.81-1.51-5.02-2.67-10.1-3.81-15.2-0.505-2.17-1.1-4.32-1.75-6.46-1.45-5.42-2.15-11-2.94-16.5h-1c-1.08-7.66-2.05-15.3-3-23-0.145-1.17-0.145-1.17-0.293-2.37-3.56-28.9-5.79-57.7-6.63-86.8-0.0797-2.74-0.165-5.48-0.252-8.23-2.58-82.7-1.21-165 8.3-248 0.0802-0.702 0.16-1.4 0.243-2.13 0.771-6.69 1.61-13.3 3.19-19.8 0.953-4.18 1.35-8.46 1.88-12.7 0.562-3.23 0.562-3.23 1.57-5.71 1.27-3.23 1.56-6.27 1.93-9.71 0.636-5.36 1.64-10.4 3.34-15.5 0.762-2.47 1.26-4.91 1.72-7.46 0.707-3.77 1.72-7.16 3.22-10.7 0.941-2.63 1.55-5.31 2.21-8.02 0.942-3.57 2.19-7.01 3.45-10.5 0.266-0.742 0.532-1.48 0.806-2.25 0.53-1.48 1.06-2.95 1.59-4.43 0.619-1.72 1.23-3.45 1.83-5.17 2.28-6.46 4.99-12.6 7.89-18.8 0.487-1.08 0.975-2.16 1.48-3.27 14-30.8 36.3-64.7 65.5-82.7 1.96-1.33 3.92-2.66 5.88-4 21.1-13.9 45.4-25.7 70.6-29.5 2.63-0.402 5.14-0.885 7.72-1.48 16.1-3.66 32.6-5.38 49-6.8 0.742-0.0648 1.48-0.13 2.25-0.197 6.51-0.562 13-1.08 19.5-1.05-0.00222-0.885-0.00444-1.77-0.00673-2.68-0.02-8.33-0.0352-16.7-0.0451-25-0.00523-4.28-0.0123-8.56-0.0236-12.8-0.0108-4.13-0.0168-8.26-0.0194-12.4-0.00185-1.58-0.00547-3.16-0.0109-4.73-0.00723-2.21-0.00826-4.41-0.0078-6.62-0.00222-1.26-0.00444-2.51-0.00673-3.81 0.12-2.94 0.12-2.94 1.12-4.94 3.06-0.625 3.06-0.625 6-1-0.781-2.5-0.781-2.5-2-5-0.99-0.33-1.98-0.66-3-1-0.448-1.62-0.889-3.24-1.3-4.87-2.48-7.54-8.05-14.2-12.4-20.7-4.04-6.02-7.97-12.1-11.9-18.2-0.628-0.974-1.26-1.95-1.9-2.95-0.581-0.91-1.16-1.82-1.76-2.76-0.523-0.816-1.05-1.63-1.58-2.47-1.13-2.01-1.13-2.01-1.13-4.01-7.09 3.48-7.09 3.48-14 7.31-3 1.69-3 1.69-5 1.69v2c-1.8 1.26-1.8 1.26-4.31 2.69-7.52 4.37-14.8 8.97-21.9 14-10.3 7.31-10.3 7.31-13.8 7.31v2c-0.766 0.402-0.766 0.402-1.55 0.812-4.65 2.51-9.07 5.22-13.5 8.19-4.86 3.29-9.8 6.27-15 9-0.956-2.87-1.13-4.68-1.15-7.66-0.0107-1.44-0.0107-1.44-0.0217-2.9-0.00269-1.05-0.00538-2.1-0.00815-3.18-0.00657-1.11-0.0131-2.21-0.0199-3.35-0.0197-3.67-0.0314-7.33-0.0414-11-0.00408-1.25-0.00815-2.5-0.0124-3.79-0.0187-5.93-0.0333-11.9-0.0416-17.8-0.00978-6.84-0.0361-13.7-0.0765-20.5-0.0338-5.93-0.0456-11.9-0.0497-17.8-0.00488-2.52-0.0165-5.05-0.035-7.57-0.0242-3.52-0.0235-7.05-0.0165-10.6-0.0192-1.57-0.0192-1.57-0.0388-3.17 0.0511-7.07 0.0511-7.07 2.38-10.3 0.701-0.47 1.4-0.941 2.13-1.43 0.819-0.553 1.64-1.11 2.48-1.68 0.893-0.54 1.79-1.08 2.71-1.64 3.72-2.31 7.21-4.7 10.6-7.44 3.24-2.59 6.41-4.49 10.2-6.25 1.34-0.993 2.67-1.99 4-3 3.86-2.4 7.72-4.44 12-6v-2c1.77-1.16 3.59-2.23 5.44-3.25 4.77-2.69 9.33-5.54 13.8-8.68 1.74-1.07 1.74-1.07 3.74-1.07-0.567-4.23-2.02-6.96-4.38-10.5-6.62-10-6.62-10-6.62-12.5h-2c-1.19-1.7-1.19-1.7-2.56-4.12-2.48-4.28-5.06-8.47-7.75-12.6-0.381-0.59-0.762-1.18-1.15-1.79-0.783-1.21-1.57-2.42-2.35-3.64-1.94-3-3.87-6.01-5.81-9.02-0.377-0.586-0.754-1.17-1.14-1.77-2.24-3.48-4.46-6.98-6.67-10.5-2.02-3.2-4.09-6.35-6.22-9.47-0.46-0.677-0.919-1.35-1.39-2.05-0.911-1.34-1.83-2.67-2.75-4-3.2-4.7-3.2-4.7-3.2-8.04zm55 87 1 2zm55 173c-0.33 0.66-0.66 1.32-1 2 0.99-0.33 1.98-0.66 3-1-0.66-0.33-1.32-0.66-2-1zm-242 243 1 2zm-4 14 1 2zm-5 20 1 2zm-4 20 1 2zm-4 23 1 2zm-9 292 1 3zm1 18 1 4zm1 12 1 3z" fill="#FAFCFC"/>
<path transform="translate(681,178)" d="m0 0c15.2-0.117 30.4-0.205 45.6-0.259 7.05-0.0258 14.1-0.0609 21.2-0.118 6.8-0.0551 13.6-0.0842 20.4-0.0972 2.6-0.00926 5.2-0.0273 7.79-0.0543 3.63-0.0362 7.26-0.0413 10.9-0.039 1.08-0.018 2.16-0.036 3.27-0.0545 7.3 0.0507 7.3 0.0507 10.5 3 0.699 1.3 0.699 1.3 1.41 2.62 0.886 1.26 0.886 1.26 1.79 2.55 4.31 6.48 8.47 13 12.6 19.7 2.84 4.57 5.85 8.98 8.99 13.4 2.55 3.76 4.76 7.71 6.98 11.7 1.7 2.8 3.61 5.23 5.68 7.76 0.942 1.42 1.86 2.86 2.75 4.31 0.428 0.697 0.856 1.39 1.3 2.11 0.315 0.519 0.629 1.04 0.953 1.57 5.96-0.477 10.2-1.97 14.3-6.45 2.14-2 4.44-3.15 7.04-4.49 3.93-2.03 7.2-4.27 10.6-7.06 1.84-1.21 3.69-2.4 5.56-3.56 3.81-2.37 3.81-2.37 7.46-4.98 2.25-1.65 4.56-2.87 7.04-4.14 6.06-3.25 11.4-7.2 16.9-11.3 1.98-1.36 3.98-2.7 6-4 0.879-0.615 1.76-1.23 2.66-1.86 0.977-0.664 1.95-1.33 2.96-2.01 0.92-0.637 1.84-1.27 2.79-1.93 0.853-0.394 1.71-0.789 2.59-1.2 2.16 0.925 2.16 0.925 4 2 0.103 15 0.149 30 0.127 45-0.00886 6.97 8.48e-4 13.9 0.0547 20.9 0.0519 6.72 0.0515 13.4 0.0193 20.2-0.00375 2.56 0.00999 5.13 0.0415 7.69 0.0412 3.6 0.0202 7.18-0.0154 10.8 0.0266 1.06 0.0532 2.12 0.0806 3.21-0.1 4.45-0.217 7.14-3.45 10.4-2.55 1.8-5.14 3.33-7.86 4.86-1.62 1.13-3.22 2.27-4.81 3.44-5.9 4.13-12 7.84-18.2 11.6-7.75 4.7-15.4 9.52-22.9 14.6-9.51 6.41-9.51 6.41-12.1 6.41 0.484 5.08 2.04 7.89 5 12 1.7 2.65 3.35 5.33 5 8 0.598 0.949 1.2 1.9 1.81 2.88 1.19 2.12 1.19 2.12 1.19 4.12h2c1.76 2.63 3.38 5.29 5 8 0.695 1.11 1.39 2.21 2.11 3.36 0.364 0.58 0.728 1.16 1.1 1.76 1.07 1.71 2.14 3.42 3.22 5.13 1.57 2.76 1.57 2.76 1.57 4.76h2c0.28 0.534 0.559 1.07 0.848 1.62 2.84 5.28 6 10.2 9.5 15 1.67 2.39 3.16 4.84 4.65 7.36 0.518 0.825 1.04 1.65 1.57 2.5 0.513 0.825 1.03 1.65 1.55 2.5 0.518 0.825 1.04 1.65 1.57 2.5 1.33 2.55 1.8 4.69 2.3 7.5-13.2 0.131-26.5 0.261-39.7 0.391-6.15 0.0605-12.3 0.121-18.5 0.182-5.93 0.0585-11.9 0.117-17.8 0.175-2.27 0.0223-4.53 0.0446-6.8 0.067-3.17 0.0313-6.34 0.0624-9.5 0.0934-0.943 0.00935-1.89 0.0187-2.86 0.0283-0.862 0.00841-1.72 0.0168-2.61 0.0255-0.749 0.00737-1.5 0.0147-2.27 0.0223-14.8 0.118-14.8 0.118-21.4-5.36-1.92-2.01-2.72-4-3.55-6.63-0.99-0.33-1.98-0.66-3-1-0.448-1.62-0.889-3.24-1.3-4.87-2.48-7.54-8.05-14.2-12.4-20.7-4.04-6.02-7.97-12.1-11.9-18.2-0.628-0.974-1.26-1.95-1.9-2.95-0.581-0.91-1.16-1.82-1.76-2.76-0.523-0.816-1.05-1.63-1.58-2.47-1.13-2.01-1.13-2.01-1.13-4.01-7.09 3.48-7.09 3.48-14 7.31-3 1.69-3 1.69-5 1.69v2c-1.8 1.26-1.8 1.26-4.31 2.69-7.52 4.37-14.8 8.97-21.9 14-10.3 7.31-10.3 7.31-13.8 7.31v2c-0.51 0.268-1.02 0.536-1.55 0.812-4.65 2.51-9.07 5.22-13.5 8.19-4.86 3.29-9.8 6.27-15 9-0.956-2.87-1.13-4.68-1.15-7.66-0.00716-0.958-0.0143-1.92-0.0217-2.9-0.00269-1.05-0.00538-2.1-0.00815-3.18-0.00657-1.11-0.0131-2.21-0.0199-3.35-0.0197-3.67-0.0314-7.33-0.0414-11-0.00408-1.25-0.00815-2.5-0.0124-3.79-0.0187-5.93-0.0333-11.9-0.0416-17.8-0.00978-6.84-0.0361-13.7-0.0765-20.5-0.0338-5.93-0.0456-11.9-0.0497-17.8-0.00488-2.52-0.0165-5.05-0.035-7.57-0.0242-3.52-0.0235-7.05-0.0165-10.6-0.0128-1.05-0.0256-2.09-0.0388-3.17 0.0511-7.07 0.0511-7.07 2.38-10.3 0.701-0.47 1.4-0.941 2.13-1.43 1.23-0.83 1.23-0.83 2.48-1.68 0.893-0.54 1.79-1.08 2.71-1.64 3.72-2.31 7.21-4.7 10.6-7.44 3.24-2.59 6.41-4.49 10.2-6.25 1.34-0.993 2.67-1.99 4-3 3.86-2.4 7.72-4.44 12-6v-2c1.77-1.16 3.59-2.23 5.44-3.25 4.77-2.69 9.33-5.54 13.8-8.68 1.74-1.07 1.74-1.07 3.74-1.07-0.567-4.23-2.02-6.96-4.38-10.5-6.62-10-6.62-10-6.62-12.5h-2c-1.19-1.7-1.19-1.7-2.56-4.12-2.48-4.28-5.06-8.47-7.75-12.6-0.381-0.59-0.762-1.18-1.15-1.79-0.783-1.21-1.57-2.42-2.35-3.64-1.94-3-3.87-6.01-5.81-9.02-0.565-0.878-0.565-0.878-1.14-1.77-2.24-3.48-4.46-6.98-6.67-10.5-2.02-3.2-4.09-6.35-6.22-9.47-0.46-0.677-0.919-1.35-1.39-2.05-0.911-1.34-1.83-2.67-2.75-4-3.2-4.7-3.2-4.7-3.2-8.04zm55 87 1 2z" fill="#E83270"/>
<path transform="translate(722,675)" d="m0 0c0.826 0.617 1.65 1.23 2.5 1.87 2.62 2.23 4.53 4.48 6.56 7.25 0.651 0.869 1.3 1.74 1.97 2.63 5.09 8.41 6.59 15.6 6.4 25.4 0.00709 1.03 0.0142 2.07 0.0215 3.13-0.0741 8.95-2.14 15.2-6.96 22.7-0.588 0.937-1.18 1.87-1.78 2.84-1.72 2.22-1.72 2.22-4.72 3.22-0.402 0.897-0.402 0.897-0.812 1.81-3.21 5.92-11.2 8.08-17.2 10.2-9.49 2.72-23 2.69-31.9-1.73-0.694-0.42-1.39-0.84-2.1-1.27-0.797-0.482-1.59-0.964-2.41-1.46-4.03-2.59-8.03-5.33-11.6-8.54v-2c-1.49-0.495-1.49-0.495-3-1-1.5-1.97-1.5-1.97-3-4.5-0.495-0.815-0.99-1.63-1.5-2.47-3.61-7.3-4.97-14-5.19-22.1-0.0342-0.866-0.0683-1.73-0.104-2.62-0.0814-2.1-0.147-4.21-0.209-6.31-0.748-0.049-1.5-0.098-2.27-0.148-0.985-0.0748-1.97-0.15-2.98-0.227-0.975-0.0696-1.95-0.139-2.95-0.211-2.69-0.399-4.47-1.05-6.8-2.41v-4c1.64 0.217 1.64 0.217 3.31 0.438 5.22 0.656 10.4 1.11 15.7 1.56v-8c-0.941-0.28-1.88-0.559-2.85-0.848-13.6-4.37-13.6-4.37-17.1-11.2-0.727-2.11-0.727-2.11-1-4 1.44-1.75 1.44-1.75 3-3 2 2 2 2 2.88 5.44 1.14 2.78 1.85 3.44 4.64 4.69 6.2 1.65 13.1 3.15 19.5 1.88 2.9-2.15 2.9-2.15 5-5 16.5-14.3 39.4-15.6 57-2z" fill="#000002"/>
<path transform="translate(919 671)" d="m0 0c2.22 1.43 4.17 2.9 6.15 4.66 4.17 3.77 4.17 3.77 9.4 5.41 5.28-0.416 9.75-1.97 14.5-4.33 0.66-0.33 1.32-0.66 2-1 0.727-1.98 1.4-3.98 2-6h3c0.489 7.33 0.489 7.33-1.69 10.3-1.14 0.835-1.14 0.835-2.31 1.69-1.08 0.804-1.08 0.804-2.19 1.62-3.28 1.6-6.34 2.18-9.92 2.75-0.624 0.206-1.25 0.413-1.89 0.625-1.31 2.95-1.31 2.95-0.125 5.69 1.84 2.47 1.84 2.47 4.12 2.67 3.59 0.0303 6.91-0.338 10.4-0.98 0.846-0.124 1.69-0.247 2.56-0.375l2 2c-1.66 2.78-2.51 3.85-5.66 4.79-0.977 0.13-1.95 0.26-2.96 0.395-3.5 0.222-3.5 0.222-6.38 1.81 0.00424 1.84 0.0157 3.68 0.0664 5.52 0.354 13.8-1.67 23.8-11.1 34.5-8.08 8.38-17.1 13.8-29 14.3-1.8 0.0237-3.61 0.0365-5.41 0.0391-0.895 0.0245-1.79 0.049-2.71 0.0742-6.52 0.0284-11.2-1.39-16.9-4.45-0.859-0.42-1.72-0.84-2.6-1.27-8.38-4.56-13.7-9.42-18.4-17.7-0.835-1.24-0.835-1.24-1.69-2.5-3.27-6.22-3.63-12.7-3.56-19.6-0.0116-1.15-0.0116-1.15-0.0234-2.31 0.0236-6.89 1.59-12.7 4.71-18.9 0.411-0.83 0.822-1.66 1.25-2.52 1.26-2.15 2.51-3.54 4.32-5.23 0.901-1.12 1.8-2.25 2.69-3.38 3.33-3.87 6.77-6.32 11.3-8.62 0.914-0.468 1.83-0.936 2.77-1.42 13.3-5.98 28.6-5.77 41.2 1.67z" fill="#000002"/>
<path transform="translate(820 283)" d="m0 0c1.64 1.59 1.64 1.59 3.76 4.4v2c0.99 0.33 1.98 0.66 3 1 1.57 2.58 1.57 2.58 3.12 5.81 0.518 1.06 1.04 2.12 1.57 3.21 3.58 8.18 3.23 16.2 0.305 24.6-3.77 8.85-8.31 14.5-17.2 18.4-8.93 3.33-18.1 4.54-27.4 2-11.5-6.93-19-13.7-22.8-26.9-2.06-9.42 1.3-17.9 6.02-26 3.94-5.57 9.26-9.5 15.5-12.1 1.24-0.557 1.24-0.557 2.5-1.12 10.7-3.73 22.5-1.86 31.7 4.72z" fill="#FAFCFC"/>
<path transform="translate(812,465)" d="m0 0h1v32h-1v-32z" fill="#000002"/>
<path transform="translate(752,1288)" d="m0 0h20v1h-20v-1z" fill="#000002"/>
<path transform="translate(1075,894)" d="m0 0h1v19h-1v-19z" fill="#000002"/>
<path transform="translate(835,1288)" d="m0 0h15v1h-15v-1z" fill="#000002"/>
<path transform="translate(1075 1e3)" d="m0 0h1v8h-1v-8z" fill="#000002"/>
<path transform="translate(917,441)" d="m0 0c0.99 1.49 0.99 1.49 2 3h-2v-3z" fill="#000002"/>
<path transform="translate(788,436)" d="m0 0 2 1z" fill="#000002"/>
<path transform="translate(931,192)" d="m0 0 2 1z" fill="#000002"/>
</svg>
